<svg width="1027" height="200" viewBox="0 0 1027 200" fill="none" xmlns="http://www.w3.org/2000/svg">
<rect x="4" y="4" width="192" height="192" rx="31" fill="#081122" stroke="#081122" stroke-width="8"/>
<path d="M69.1143 154.352C71.111 164.983 66.655 174.763 61 180C52.2997 188.056 38 200 38 200H113.167C125.739 189.061 129.7 170.101 123.485 154.352C118.093 140.688 122.123 130.029 134.216 125.911C135.157 125.591 137 125.319 137 125.319L137 108C132.179 109.165 137 108 123.078 111.35C120.173 112.049 93.8158 118.051 80.5256 127.04C72.0136 132.798 67.1177 143.72 69.1143 154.352Z" fill="#F0761D"/>
<path d="M143 48C156.807 48 168 59.1929 168 73V149C168 151.209 166.209 153 164 153H147C144.791 153 143 151.209 143 149V89C143 80.1634 135.837 73 127 73H74C65.1634 73 58 80.1634 58 89V149C58 151.209 56.2091 153 54 153H37C34.7909 153 33 151.209 33 149V73C33 59.1929 44.1929 48 58 48H143Z" fill="#1E93DB"/>
<path d="M316.55 56.5V160H293.6V56.5H316.55ZM347.75 56.5V74.5H262.55V56.5H347.75ZM365.209 85.9L367.909 100.6L370.009 102.55V160H347.809V85.9H365.209ZM401.359 83.95L399.259 104.5H393.109C389.609 104.5 385.959 105 382.159 106C378.359 107 373.559 108.5 367.759 110.5L366.259 98.05C371.459 93.45 376.709 89.95 382.009 87.55C387.309 85.15 392.459 83.95 397.459 83.95H401.359ZM450.533 83.95C456.733 83.95 461.983 84.8 466.283 86.5C470.583 88.1 473.833 90.9 476.033 94.9C478.333 98.8 479.483 104.2 479.483 111.1V160H461.783L458.633 143.95L457.133 141.7V110.95C457.133 107.45 456.283 104.9 454.583 103.3C452.983 101.7 449.883 100.9 445.283 100.9C441.483 100.9 436.733 101.05 431.033 101.35C425.333 101.55 419.483 101.85 413.483 102.25L411.383 87.55C414.983 86.85 419.133 86.25 423.833 85.75C428.533 85.25 433.233 84.85 437.933 84.55C442.633 84.15 446.833 83.95 450.533 83.95ZM470.333 114.4L470.183 126.85L437.183 127C434.483 127 432.533 127.65 431.333 128.95C430.233 130.25 429.683 132 429.683 134.2V137.8C429.683 140.3 430.383 142.25 431.783 143.65C433.183 144.95 435.433 145.6 438.533 145.6C441.133 145.6 443.933 145.05 446.933 143.95C450.033 142.85 453.083 141.3 456.083 139.3C459.083 137.3 461.733 134.95 464.033 132.25V141.85C463.133 143.35 461.783 145.25 459.983 147.55C458.283 149.75 456.083 151.95 453.383 154.15C450.683 156.25 447.533 158.05 443.933 159.55C440.333 161.05 436.233 161.8 431.633 161.8C427.133 161.8 423.083 161 419.483 159.4C415.883 157.8 413.033 155.45 410.933 152.35C408.833 149.25 407.783 145.4 407.783 140.8V133.15C407.783 127.25 409.783 122.65 413.783 119.35C417.783 116.05 423.283 114.4 430.283 114.4H470.333ZM531.43 83.95C534.13 83.95 537.08 84.1 540.28 84.4C543.48 84.6 546.68 85.05 549.88 85.75C553.18 86.35 556.18 87.25 558.88 88.45L556.48 102.4C552.48 102.3 548.63 102.2 544.93 102.1C541.33 102 538.08 101.95 535.18 101.95C530.68 101.95 527.13 102.55 524.53 103.75C521.93 104.95 520.03 107.1 518.83 110.2C517.73 113.2 517.18 117.4 517.18 122.8C517.18 128.3 517.73 132.6 518.83 135.7C520.03 138.8 521.93 140.95 524.53 142.15C527.13 143.35 530.68 143.95 535.18 143.95C536.78 143.95 538.83 143.9 541.33 143.8C543.83 143.7 546.53 143.6 549.43 143.5C552.33 143.3 555.18 143 557.98 142.6L560.08 156.7C556.08 158.5 551.53 159.8 546.43 160.6C541.33 161.4 536.28 161.8 531.28 161.8C522.08 161.8 514.73 160.55 509.23 158.05C503.83 155.45 499.93 151.3 497.53 145.6C495.13 139.9 493.93 132.3 493.93 122.8C493.93 113.3 495.13 105.7 497.53 100C500.03 94.3 504.03 90.2 509.53 87.7C515.03 85.2 522.33 83.95 531.43 83.95ZM644.948 85.9L625.598 111.7C624.698 113.1 623.548 114.45 622.148 115.75C620.748 117.05 619.598 118 618.698 118.6V119.2C619.598 119.7 620.748 120.75 622.148 122.35C623.548 123.95 624.698 125.55 625.598 127.15L647.498 160H622.748L597.398 118.3L620.198 85.9H644.948ZM595.448 55L595.598 98.35C595.598 101.85 595.398 105.25 594.998 108.55C594.598 111.85 593.998 115.1 593.198 118.3C593.898 121.4 594.448 124.6 594.848 127.9C595.248 131.1 595.448 134.1 595.448 136.9V160H573.248V55H595.448ZM605.798 112V125.5H588.548V112H605.798ZM699.037 55C707.237 55 714.137 55.9 719.737 57.7C725.437 59.4 729.987 62.25 733.387 66.25C736.887 70.25 739.437 75.7 741.037 82.6C742.637 89.4 743.437 97.95 743.437 108.25C743.437 118.55 742.637 127.15 741.037 134.05C739.437 140.85 736.887 146.25 733.387 150.25C729.987 154.25 725.437 157.15 719.737 158.95C714.137 160.65 707.237 161.5 699.037 161.5C691.137 161.5 683.887 161.35 677.287 161.05C670.687 160.75 664.387 160.4 658.387 160L667.987 143.05C671.787 143.25 676.287 143.45 681.487 143.65C686.787 143.75 692.637 143.8 699.037 143.8C704.137 143.8 708.137 142.8 711.037 140.8C714.037 138.7 716.137 135.05 717.337 129.85C718.637 124.65 719.287 117.45 719.287 108.25C719.287 99.05 718.637 91.85 717.337 86.65C716.137 81.45 714.037 77.8 711.037 75.7C708.137 73.6 704.137 72.55 699.037 72.55C692.937 72.55 687.487 72.6 682.687 72.7C677.887 72.7 673.187 72.7 668.587 72.7L658.387 56.5C664.387 56.1 670.637 55.75 677.137 55.45C683.737 55.15 691.037 55 699.037 55ZM681.337 56.5V160H658.387V56.5H681.337ZM776.83 85.9L779.53 100.6L781.63 102.55V160H759.43V85.9H776.83ZM812.98 83.95L810.88 104.5H804.73C801.23 104.5 797.58 105 793.78 106C789.98 107 785.18 108.5 779.38 110.5L777.88 98.05C783.08 93.45 788.33 89.95 793.63 87.55C798.93 85.15 804.08 83.95 809.08 83.95H812.98ZM862.154 83.95C868.354 83.95 873.604 84.8 877.904 86.5C882.204 88.1 885.454 90.9 887.654 94.9C889.954 98.8 891.104 104.2 891.104 111.1V160H873.404L870.254 143.95L868.754 141.7V110.95C868.754 107.45 867.904 104.9 866.204 103.3C864.604 101.7 861.504 100.9 856.904 100.9C853.104 100.9 848.354 101.05 842.654 101.35C836.954 101.55 831.104 101.85 825.104 102.25L823.004 87.55C826.604 86.85 830.754 86.25 835.454 85.75C840.154 85.25 844.854 84.85 849.554 84.55C854.254 84.15 858.454 83.95 862.154 83.95ZM881.954 114.4L881.804 126.85L848.804 127C846.104 127 844.154 127.65 842.954 128.95C841.854 130.25 841.304 132 841.304 134.2V137.8C841.304 140.3 842.004 142.25 843.404 143.65C844.804 144.95 847.054 145.6 850.154 145.6C852.754 145.6 855.554 145.05 858.554 143.95C861.654 142.85 864.704 141.3 867.704 139.3C870.704 137.3 873.354 134.95 875.654 132.25V141.85C874.754 143.35 873.404 145.25 871.604 147.55C869.904 149.75 867.704 151.95 865.004 154.15C862.304 156.25 859.154 158.05 855.554 159.55C851.954 161.05 847.854 161.8 843.254 161.8C838.754 161.8 834.704 161 831.104 159.4C827.504 157.8 824.654 155.45 822.554 152.35C820.454 149.25 819.404 145.4 819.404 140.8V133.15C819.404 127.25 821.404 122.65 825.404 119.35C829.404 116.05 834.904 114.4 841.904 114.4H881.954ZM1024.65 85.9L1006.35 154.15C1005.95 155.95 1005.05 157.4 1003.65 158.5C1002.25 159.5 1000.6 160 998.701 160H981.901C979.901 160 978.151 159.4 976.651 158.2C975.151 156.9 974.251 155.25 973.951 153.25L965.851 111.55C965.551 109.45 965.301 107.4 965.101 105.4C964.901 103.3 964.601 101.2 964.201 99.1H962.401C962.101 101.2 961.801 103.3 961.501 105.4C961.201 107.4 960.901 109.45 960.601 111.55L952.501 153.25C952.201 155.25 951.301 156.9 949.801 158.2C948.301 159.4 946.551 160 944.551 160H927.901C926.001 160 924.351 159.5 922.951 158.5C921.551 157.4 920.651 155.95 920.251 154.15L901.951 85.9H924.301L934.501 133.9C934.901 135.9 935.251 137.95 935.551 140.05C935.851 142.05 936.101 144.05 936.301 146.05H938.251C938.551 144.05 938.851 142.05 939.151 140.05C939.551 137.95 939.901 135.9 940.201 133.9L948.301 92.65C948.601 90.65 949.451 89.05 950.851 87.85C952.251 86.55 954.001 85.9 956.101 85.9H970.501C972.501 85.9 974.201 86.55 975.601 87.85C977.101 89.05 978.001 90.7 978.301 92.8L986.251 133.9C986.551 135.9 986.901 137.9 987.301 139.9C987.701 141.9 988.051 143.95 988.351 146.05H990.151C990.551 143.95 990.851 141.95 991.051 140.05C991.351 138.05 991.701 136 992.101 133.9L1002.3 85.9H1024.65Z" fill="#081122"/>
</svg>
