<svg
  width="200"
  height="200"
  viewBox="0 0 200 200"
  fill="none"
  xmlns="http://www.w3.org/2000/svg"
>
  <rect
    x="4"
    y="4"
    width="192"
    height="192"
    rx="31"
    fill="#081122"
    stroke="#081122"
    stroke-width="8"
  />
  <path
    d="M69.1143 154.352C71.111 164.983 66.655 174.763 61 180C52.2997 188.056 38 200 38 200H113.167C125.739 189.061 129.7 170.101 123.485 154.352C118.093 140.688 122.123 130.029 134.216 125.911C135.157 125.591 137 125.319 137 125.319L137 108C132.179 109.165 137 108 123.078 111.35C120.173 112.049 93.8158 118.051 80.5256 127.04C72.0136 132.798 67.1177 143.72 69.1143 154.352Z"
    fill="#F0761D"
  />
  <path
    d="M143 48C156.807 48 168 59.1929 168 73V149C168 151.209 166.209 153 164 153H147C144.791 153 143 151.209 143 149V89C143 80.1634 135.837 73 127 73H74C65.1634 73 58 80.1634 58 89V149C58 151.209 56.2091 153 54 153H37C34.7909 153 33 151.209 33 149V73C33 59.1929 44.1929 48 58 48H143Z"
    fill="#1E93DB"
  />
</svg>
