<svg width="799" height="200" viewBox="0 0 799 200" fill="none" xmlns="http://www.w3.org/2000/svg">
<rect width="200" height="200" rx="35" fill="white"/>
<path d="M69.1143 154.352C71.111 164.983 64.1546 170.196 58.4996 175.432C49.7993 183.488 38 200 38 200H113.167C125.739 189.061 129.7 170.101 123.485 154.352C118.093 140.688 122.123 130.029 134.216 125.911C135.157 125.591 137 125.319 137 125.319L137 108C132.179 109.165 137 108 123.078 111.35C120.173 112.049 93.8158 118.051 80.5256 127.04C72.0136 132.798 67.1177 143.72 69.1143 154.352Z" fill="#F0761D"/>
<path d="M143 48C156.807 48 168 59.1929 168 73V149C168 151.209 166.209 153 164 153H147C144.791 153 143 151.209 143 149V89C143 80.1634 135.837 73 127 73H74C65.1634 73 58 80.1634 58 89V149C58 151.209 56.2091 153 54 153H37C34.7909 153 33 151.209 33 149V73C33 59.1929 44.1929 48 58 48H143Z" fill="#1E93DB"/>
<path d="M265.47 70.1V146H248.64V70.1H265.47ZM288.35 70.1V83.3H225.87V70.1H288.35ZM301.153 91.66L303.133 102.44L304.673 103.87V146H288.393V91.66H301.153ZM327.663 90.23L326.123 105.3H321.613C319.046 105.3 316.37 105.667 313.583 106.4C310.796 107.133 307.276 108.233 303.023 109.7L301.923 100.57C305.736 97.1967 309.586 94.63 313.473 92.87C317.36 91.11 321.136 90.23 324.803 90.23H327.663ZM363.724 90.23C368.271 90.23 372.121 90.8533 375.274 92.1C378.427 93.2733 380.811 95.3267 382.424 98.26C384.111 101.12 384.954 105.08 384.954 110.14V146H371.974L369.664 134.23L368.564 132.58V110.03C368.564 107.463 367.941 105.593 366.694 104.42C365.521 103.247 363.247 102.66 359.874 102.66C357.087 102.66 353.604 102.77 349.424 102.99C345.244 103.137 340.954 103.357 336.554 103.65L335.014 92.87C337.654 92.3567 340.697 91.9167 344.144 91.55C347.591 91.1833 351.037 90.89 354.484 90.67C357.931 90.3767 361.011 90.23 363.724 90.23ZM378.244 112.56L378.134 121.69L353.934 121.8C351.954 121.8 350.524 122.277 349.644 123.23C348.837 124.183 348.434 125.467 348.434 127.08V129.72C348.434 131.553 348.947 132.983 349.974 134.01C351.001 134.963 352.651 135.44 354.924 135.44C356.831 135.44 358.884 135.037 361.084 134.23C363.357 133.423 365.594 132.287 367.794 130.82C369.994 129.353 371.937 127.63 373.624 125.65V132.69C372.964 133.79 371.974 135.183 370.654 136.87C369.407 138.483 367.794 140.097 365.814 141.71C363.834 143.25 361.524 144.57 358.884 145.67C356.244 146.77 353.237 147.32 349.864 147.32C346.564 147.32 343.594 146.733 340.954 145.56C338.314 144.387 336.224 142.663 334.684 140.39C333.144 138.117 332.374 135.293 332.374 131.92V126.31C332.374 121.983 333.841 118.61 336.774 116.19C339.707 113.77 343.741 112.56 348.874 112.56H378.244ZM423.048 90.23C425.028 90.23 427.192 90.34 429.538 90.56C431.885 90.7067 434.232 91.0367 436.578 91.55C438.998 91.99 441.198 92.65 443.178 93.53L441.418 103.76C438.485 103.687 435.662 103.613 432.948 103.54C430.308 103.467 427.925 103.43 425.798 103.43C422.498 103.43 419.895 103.87 417.988 104.75C416.082 105.63 414.688 107.207 413.808 109.48C413.002 111.68 412.598 114.76 412.598 118.72C412.598 122.753 413.002 125.907 413.808 128.18C414.688 130.453 416.082 132.03 417.988 132.91C419.895 133.79 422.498 134.23 425.798 134.23C426.972 134.23 428.475 134.193 430.308 134.12C432.142 134.047 434.122 133.973 436.248 133.9C438.375 133.753 440.465 133.533 442.518 133.24L444.058 143.58C441.125 144.9 437.788 145.853 434.048 146.44C430.308 147.027 426.605 147.32 422.938 147.32C416.192 147.32 410.802 146.403 406.768 144.57C402.808 142.663 399.948 139.62 398.188 135.44C396.428 131.26 395.548 125.687 395.548 118.72C395.548 111.753 396.428 106.18 398.188 102C400.022 97.82 402.955 94.8133 406.988 92.98C411.022 91.1467 416.375 90.23 423.048 90.23ZM506.295 91.66L492.105 110.58C491.445 111.607 490.602 112.597 489.575 113.55C488.549 114.503 487.705 115.2 487.045 115.64V116.08C487.705 116.447 488.549 117.217 489.575 118.39C490.602 119.563 491.445 120.737 492.105 121.91L508.165 146H490.015L471.425 115.42L488.145 91.66H506.295ZM469.995 69L470.105 100.79C470.105 103.357 469.959 105.85 469.665 108.27C469.372 110.69 468.932 113.073 468.345 115.42C468.859 117.693 469.262 120.04 469.555 122.46C469.849 124.807 469.995 127.007 469.995 129.06V146H453.715V69H469.995ZM477.585 110.8V120.7H464.935V110.8H477.585ZM545.961 69C551.974 69 557.034 69.66 561.141 70.98C565.321 72.2267 568.657 74.3167 571.151 77.25C573.717 80.1833 575.587 84.18 576.761 89.24C577.934 94.2267 578.521 100.497 578.521 108.05C578.521 115.603 577.934 121.91 576.761 126.97C575.587 131.957 573.717 135.917 571.151 138.85C568.657 141.783 565.321 143.91 561.141 145.23C557.034 146.477 551.974 147.1 545.961 147.1C540.167 147.1 534.851 146.99 530.011 146.77C525.171 146.55 520.551 146.293 516.151 146L523.191 133.57C525.977 133.717 529.277 133.863 533.091 134.01C536.977 134.083 541.267 134.12 545.961 134.12C549.701 134.12 552.634 133.387 554.761 131.92C556.961 130.38 558.501 127.703 559.381 123.89C560.334 120.077 560.811 114.797 560.811 108.05C560.811 101.303 560.334 96.0233 559.381 92.21C558.501 88.3967 556.961 85.72 554.761 84.18C552.634 82.64 549.701 81.87 545.961 81.87C541.487 81.87 537.491 81.9067 533.971 81.98C530.451 81.98 527.004 81.98 523.631 81.98L516.151 70.1C520.551 69.8067 525.134 69.55 529.901 69.33C534.741 69.11 540.094 69 545.961 69ZM532.981 70.1V146H516.151V70.1H532.981ZM603.008 91.66L604.988 102.44L606.528 103.87V146H590.248V91.66H603.008ZM629.518 90.23L627.978 105.3H623.468C620.902 105.3 618.225 105.667 615.438 106.4C612.652 107.133 609.132 108.233 604.878 109.7L603.778 100.57C607.592 97.1967 611.442 94.63 615.328 92.87C619.215 91.11 622.992 90.23 626.658 90.23H629.518ZM665.58 90.23C670.126 90.23 673.976 90.8533 677.13 92.1C680.283 93.2733 682.666 95.3267 684.28 98.26C685.966 101.12 686.81 105.08 686.81 110.14V146H673.83L671.52 134.23L670.42 132.58V110.03C670.42 107.463 669.796 105.593 668.55 104.42C667.376 103.247 665.103 102.66 661.73 102.66C658.943 102.66 655.46 102.77 651.28 102.99C647.1 103.137 642.81 103.357 638.41 103.65L636.87 92.87C639.51 92.3567 642.553 91.9167 646 91.55C649.446 91.1833 652.893 90.89 656.34 90.67C659.786 90.3767 662.866 90.23 665.58 90.23ZM680.1 112.56L679.99 121.69L655.79 121.8C653.81 121.8 652.38 122.277 651.5 123.23C650.693 124.183 650.29 125.467 650.29 127.08V129.72C650.29 131.553 650.803 132.983 651.83 134.01C652.856 134.963 654.506 135.44 656.78 135.44C658.686 135.44 660.74 135.037 662.94 134.23C665.213 133.423 667.45 132.287 669.65 130.82C671.85 129.353 673.793 127.63 675.48 125.65V132.69C674.82 133.79 673.83 135.183 672.51 136.87C671.263 138.483 669.65 140.097 667.67 141.71C665.69 143.25 663.38 144.57 660.74 145.67C658.1 146.77 655.093 147.32 651.72 147.32C648.42 147.32 645.45 146.733 642.81 145.56C640.17 144.387 638.08 142.663 636.54 140.39C635 138.117 634.23 135.293 634.23 131.92V126.31C634.23 121.983 635.696 118.61 638.63 116.19C641.563 113.77 645.596 112.56 650.73 112.56H680.1ZM784.744 91.66L771.324 141.71C771.031 143.03 770.371 144.093 769.344 144.9C768.317 145.633 767.107 146 765.714 146H753.394C751.927 146 750.644 145.56 749.544 144.68C748.444 143.727 747.784 142.517 747.564 141.05L741.624 110.47C741.404 108.93 741.221 107.427 741.074 105.96C740.927 104.42 740.707 102.88 740.414 101.34H739.094C738.874 102.88 738.654 104.42 738.434 105.96C738.214 107.427 737.994 108.93 737.774 110.47L731.834 141.05C731.614 142.517 730.954 143.727 729.854 144.68C728.754 145.56 727.471 146 726.004 146H713.794C712.401 146 711.191 145.633 710.164 144.9C709.137 144.093 708.477 143.03 708.184 141.71L694.764 91.66H711.154L718.634 126.86C718.927 128.327 719.184 129.83 719.404 131.37C719.624 132.837 719.807 134.303 719.954 135.77H721.384C721.604 134.303 721.824 132.837 722.044 131.37C722.337 129.83 722.594 128.327 722.814 126.86L728.754 96.61C728.974 95.1433 729.597 93.97 730.624 93.09C731.651 92.1367 732.934 91.66 734.474 91.66H745.034C746.501 91.66 747.747 92.1367 748.774 93.09C749.874 93.97 750.534 95.18 750.754 96.72L756.584 126.86C756.804 128.327 757.061 129.793 757.354 131.26C757.647 132.727 757.904 134.23 758.124 135.77H759.444C759.737 134.23 759.957 132.763 760.104 131.37C760.324 129.903 760.581 128.4 760.874 126.86L768.354 91.66H784.744Z" fill="white"/>
</svg>
